<?xml version="1.0" encoding="utf-8"?>
<!-- Generator: Adobe Illustrator 22.1.0, SVG Export Plug-In . SVG Version: 6.00 Build 0)  -->
<svg version="1.1"
	 id="レイヤー_1" xmlns:cc="http://creativecommons.org/ns#" xmlns:dc="http://purl.org/dc/elements/1.1/" xmlns:rdf="http://www.w3.org/1999/02/22-rdf-syntax-ns#" xmlns:svg="http://www.w3.org/2000/svg"
	 xmlns="http://www.w3.org/2000/svg" xmlns:xlink="http://www.w3.org/1999/xlink" x="0px" y="0px" viewBox="0 0 52 40" width="52px" height="40px"
	 style="enable-background:new 0 0 52 40;" xml:space="preserve">
<style type="text/css">
	.st0{fill:#FFFFFF;}
	.st1{fill:url(#path6338_1_);}
	.st2{fill:url(#path6349_1_);}
	.st3{fill:url(#path6360_1_);}
	.st4{fill:url(#path6371_1_);}
	.st5{fill:url(#path6384_1_);}
</style>
<g id="g6321" transform="translate(-9.4000001,96.810998)">
	<g id="g6323" transform="matrix(1.8215159,0,0,1.8215159,-8.5437653,-109.83667)">
		<path id="path6325" class="st0" d="M38.3,24.7c0,2.4-2,4.4-4.4,4.4H9.8V11.6c0-2.4,2-4.4,4.4-4.4h24.1V24.7L38.3,24.7z"/>
		<g id="g6327">
			
				<linearGradient id="path6338_1_" gradientUnits="userSpaceOnUse" x1="-130.1882" y1="227.8112" x2="-123.2405" y2="227.8112" gradientTransform="matrix(3.7327 0 0 3.7327 514.8861 -830.9969)">
				<stop  offset="0" style="stop-color:#007940"/>
				<stop  offset="0.2285" style="stop-color:#00873F"/>
				<stop  offset="0.7433" style="stop-color:#40A737"/>
				<stop  offset="1" style="stop-color:#5CB531"/>
			</linearGradient>
			<path id="path6338" class="st1" d="M30.4,20.1h1.9c0,0,0.1,0,0.3,0c0.4-0.1,0.7-0.4,0.7-0.8c0-0.4-0.3-0.7-0.7-0.8
				c0,0-0.1,0-0.3,0h-1.9V20.1L30.4,20.1z"/>
			
				<linearGradient id="path6349_1_" gradientUnits="userSpaceOnUse" x1="-130.1883" y1="227.5081" x2="-123.2463" y2="227.5081" gradientTransform="matrix(3.7327 0 0 3.7327 514.8861 -830.9969)">
				<stop  offset="0" style="stop-color:#007940"/>
				<stop  offset="0.2285" style="stop-color:#00873F"/>
				<stop  offset="0.7433" style="stop-color:#40A737"/>
				<stop  offset="1" style="stop-color:#5CB531"/>
			</linearGradient>
			<path id="path6349" class="st2" d="M32,8.7c-1.7,0-3.2,1.5-3.2,3.2v3.3h4.5c0.1,0,0.3,0,0.3,0c1.1,0,1.7,0.5,1.7,1.5
				c0,0.7-0.5,1.3-1.5,1.5l0,0c1.1,0.1,1.9,0.7,1.9,1.6c0,0.9-0.9,1.6-2,1.6h-4.9v6.4h4.7c1.7,0,3.2-1.5,3.2-3.2V8.7H32L32,8.7z"/>
			
				<linearGradient id="path6360_1_" gradientUnits="userSpaceOnUse" x1="-130.1883" y1="227.1338" x2="-123.2402" y2="227.1338" gradientTransform="matrix(3.7327 0 0 3.7327 514.8861 -830.9969)">
				<stop  offset="0" style="stop-color:#007940"/>
				<stop  offset="0.2285" style="stop-color:#00873F"/>
				<stop  offset="0.7433" style="stop-color:#40A737"/>
				<stop  offset="1" style="stop-color:#5CB531"/>
			</linearGradient>
			<path id="path6360" class="st3" d="M33,16.8c0-0.4-0.3-0.7-0.7-0.8h-0.1h-1.6v1.6h1.6h0.1C32.7,17.5,33,17.2,33,16.8z"/>
		</g>
		
			<linearGradient id="path6371_1_" gradientUnits="userSpaceOnUse" x1="-134.8762" y1="227.4903" x2="-127.8209" y2="227.4903" gradientTransform="matrix(3.7327 0 0 3.7327 514.8861 -830.9969)">
			<stop  offset="0" style="stop-color:#1F286F"/>
			<stop  offset="0.4751" style="stop-color:#004E94"/>
			<stop  offset="0.8261" style="stop-color:#0066B1"/>
			<stop  offset="1" style="stop-color:#006FBC"/>
		</linearGradient>
		<path id="path6371" class="st4" d="M14.6,8.7c-1.7,0-3.2,1.5-3.2,3.2v7.9c0.9,0.4,1.9,0.7,2.8,0.7c1.1,0,1.7-0.7,1.7-1.6v-3.7h2.7
			v3.7c0,1.5-0.9,2.5-3.9,2.5c-1.9,0-3.2-0.4-3.2-0.4v6.7h4.7c1.7,0,3.2-1.5,3.2-3.2V8.7C19.3,8.7,14.6,8.7,14.6,8.7z"/>
		
			<linearGradient id="path6384_1_" gradientUnits="userSpaceOnUse" x1="-132.5434" y1="227.4903" x2="-125.6911" y2="227.4903" gradientTransform="matrix(3.7327 0 0 3.7327 514.8861 -830.9969)">
			<stop  offset="0" style="stop-color:#6C2C2F"/>
			<stop  offset="0.1735" style="stop-color:#882730"/>
			<stop  offset="0.5731" style="stop-color:#BE1833"/>
			<stop  offset="0.8585" style="stop-color:#DC0436"/>
			<stop  offset="1" style="stop-color:#E60039"/>
		</linearGradient>
		<path id="path6384" class="st5" d="M23.4,8.7c-1.7,0-3.2,1.5-3.2,3.2V16c0.8-0.7,2.1-1.1,4.4-1.1c1.2,0,2.5,0.4,2.5,0.4v1.3
			c-0.7-0.3-1.5-0.7-2.4-0.7c-1.7-0.1-2.8,0.7-2.8,2.1s1.1,2.3,2.8,2.1c0.9-0.1,1.7-0.4,2.4-0.7v1.3c0,0-1.3,0.3-2.5,0.4
			c-2.3,0.1-3.6-0.3-4.4-1.1v7.3h4.7c1.7,0,3.2-1.5,3.2-3.2V8.7H23.4z"/>
	</g>
	<g id="g6386">
	</g>
</g>
</svg>
