<?xml version="1.0" encoding="utf-8"?>
<!-- Generator: Adobe Illustrator 22.1.0, SVG Export Plug-In . SVG Version: 6.00 Build 0)  -->
<svg version="1.1" id="Camada_1" xmlns:sketch="http://www.bohemiancoding.com/sketch/ns"
	 xmlns="http://www.w3.org/2000/svg" xmlns:xlink="http://www.w3.org/1999/xlink" x="0px" y="0px" width="40px" height="40px" viewBox="0 0 40 40"
	 style="enable-background:new 0 0 40 40;" xml:space="preserve">
<style type="text/css">
	.st0{fill:#FF5F00;}
	.st1{fill:#EB001B;}
	.st2{fill:#F79E1B;}
</style>
<title></title>
<g>
	<path d="M9.2,33.1v-1.8c0-0.7-0.4-1.1-1.1-1.1c-0.4,0-0.7,0.1-1,0.5c-0.2-0.3-0.5-0.5-0.9-0.5c-0.3,0-0.6,0.1-0.8,0.4v-0.4H4.7V33
		h0.6v-1.5c0-0.5,0.3-0.7,0.7-0.7s0.6,0.3,0.6,0.7V33h0.6v-1.5c0-0.5,0.3-0.7,0.7-0.7c0.4,0,0.6,0.3,0.6,0.7V33L9.2,33.1L9.2,33.1z
		 M18.3,30.3h-1v-0.8h-0.6v0.8h-0.6v0.6h0.6v1.3c0,0.6,0.3,1,1,1c0.3,0,0.6-0.1,0.8-0.2l-0.2-0.5c-0.2,0.1-0.4,0.1-0.5,0.1
		c-0.3,0-0.4-0.2-0.4-0.5v-1.3h1L18.3,30.3L18.3,30.3z M23.5,30.3c-0.4,0-0.6,0.2-0.7,0.4v-0.4h-0.6v2.8h0.6v-1.6
		c0-0.5,0.2-0.7,0.6-0.7c0.1,0,0.3,0,0.4,0.1l0.2-0.6C23.8,30.3,23.6,30.3,23.5,30.3L23.5,30.3L23.5,30.3z M15.6,30.6
		c-0.3-0.2-0.7-0.3-1.1-0.3c-0.7,0-1.2,0.4-1.2,0.9s0.4,0.7,1,0.8h0.3c0.3,0.1,0.5,0.1,0.5,0.3s-0.2,0.4-0.6,0.4
		c-0.4,0-0.7-0.1-0.9-0.3l-0.3,0.5c0.3,0.2,0.8,0.4,1.2,0.4c0.8,0,1.3-0.4,1.3-0.9s-0.4-0.8-1-0.8h-0.3c-0.3,0-0.5-0.1-0.5-0.3
		c0-0.2,0.2-0.3,0.5-0.3c0.4,0,0.7,0.1,0.9,0.2L15.6,30.6L15.6,30.6z M31.9,30.3c-0.4,0-0.6,0.2-0.7,0.4v-0.4h-0.6v2.8h0.6v-1.6
		c0-0.5,0.2-0.7,0.6-0.7c0.1,0,0.3,0,0.4,0.1l0.2-0.6C32.2,30.3,32,30.3,31.9,30.3L31.9,30.3L31.9,30.3z M24.1,31.7
		c0,0.8,0.6,1.5,1.5,1.5c0.4,0,0.7-0.1,1-0.3l-0.3-0.5c-0.2,0.2-0.5,0.3-0.7,0.3c-0.5,0-0.8-0.4-0.8-0.9c0-0.5,0.4-0.9,0.8-0.9
		c0.3,0,0.5,0.1,0.7,0.3l0.3-0.5c-0.3-0.2-0.6-0.3-1-0.3C24.7,30.3,24.1,30.9,24.1,31.7L24.1,31.7L24.1,31.7z M29.7,31.7v-1.4h-0.6
		v0.4c-0.2-0.3-0.5-0.4-0.9-0.4c-0.8,0-1.4,0.6-1.4,1.5s0.6,1.5,1.4,1.5c0.4,0,0.7-0.1,0.9-0.4v0.4h0.6V31.7z M27.5,31.7
		c0-0.5,0.3-0.9,0.8-0.9s0.8,0.4,0.8,0.9s-0.4,0.9-0.8,0.9C27.8,32.6,27.5,32.2,27.5,31.7L27.5,31.7z M20.2,30.3
		c-0.8,0-1.4,0.6-1.4,1.5c0,0.9,0.6,1.5,1.4,1.5c0.4,0,0.8-0.1,1.1-0.4L21,32.4c-0.2,0.2-0.5,0.3-0.8,0.3c-0.4,0-0.8-0.2-0.8-0.7
		h2.1v-0.2C21.5,30.9,20.9,30.3,20.2,30.3L20.2,30.3L20.2,30.3z M20.2,30.8c0.4,0,0.6,0.2,0.7,0.7h-1.5
		C19.5,31.1,19.7,30.8,20.2,30.8L20.2,30.8z M35.4,31.7v-2.5h-0.6v1.5c-0.2-0.3-0.5-0.4-0.9-0.4c-0.8,0-1.4,0.6-1.4,1.5
		s0.6,1.5,1.4,1.5c0.4,0,0.7-0.1,0.9-0.4v0.4h0.6V31.7z M33.1,31.7c0-0.5,0.3-0.9,0.8-0.9s0.8,0.4,0.8,0.9s-0.4,0.9-0.8,0.9
		C33.4,32.6,33.1,32.2,33.1,31.7L33.1,31.7z M12.6,31.7v-1.4H12v0.4c-0.2-0.3-0.5-0.4-0.9-0.4c-0.8,0-1.4,0.6-1.4,1.5
		s0.6,1.5,1.4,1.5c0.4,0,0.7-0.1,0.9-0.4v0.4h0.6V31.7z M10.4,31.7c0-0.5,0.3-0.9,0.8-0.9s0.8,0.4,0.8,0.9s-0.4,0.9-0.8,0.9
		C10.7,32.6,10.4,32.2,10.4,31.7z"/>
	<rect x="15.4" y="9.1" class="st0" width="9.2" height="16.5"/>
	<path class="st1" d="M16,17.3c0-3.4,1.6-6.3,4-8.3c-1.8-1.4-4-2.2-6.5-2.2C7.7,6.8,3,11.5,3,17.3s4.7,10.5,10.5,10.5
		c2.5,0,4.7-0.8,6.5-2.2C17.6,23.7,16,20.7,16,17.3z"/>
	<path class="st2" d="M37,17.3c0,5.8-4.7,10.5-10.5,10.5c-2.5,0-4.7-0.8-6.5-2.2c2.5-1.9,4-4.9,4-8.3S22.4,11,20,9
		c1.8-1.4,4-2.2,6.5-2.2C32.3,6.8,37,11.5,37,17.3z"/>
</g>
</svg>
